<?xml version="1.0" standalone="no"?>
<!DOCTYPE svg PUBLIC "-//W3C//DTD SVG 20010904//EN"
 "http://www.w3.org/TR/2001/REC-SVG-20010904/DTD/svg10.dtd">
<svg version="1.0" xmlns="http://www.w3.org/2000/svg"
 width="385.000000pt" height="360.000000pt" viewBox="0 0 385.000000 360.000000"
 preserveAspectRatio="xMidYMid meet">

<g transform="translate(0.000000,360.000000) scale(0.100000,-0.100000)"
fill="#000000" stroke="none">
<path d="M1743 2590 c-17 -17 -61 -46 -99 -65 -38 -19 -81 -42 -95 -51 -25
-16 -27 -16 -56 5 -40 30 -99 37 -146 18 -45 -20 -97 -96 -97 -144 0 -54 40
-132 67 -133 4 0 15 -6 25 -13 15 -12 15 -18 2 -67 -8 -30 -14 -81 -14 -113 0
-33 -6 -73 -14 -90 -26 -59 -55 -144 -78 -233 -19 -75 -23 -114 -22 -249 0
-146 2 -167 27 -241 31 -94 87 -177 148 -219 101 -70 173 -87 376 -89 159 -1
162 -1 188 24 15 14 34 39 41 56 10 24 32 40 99 74 l85 43 98 -7 c53 -4 110
-7 125 -7 43 0 92 36 124 89 29 48 63 141 63 171 -1 19 -39 101 -40 84 0 -15
-14 -18 -312 -87 -128 -30 -245 -57 -260 -61 -23 -6 -28 -4 -28 12 0 31 90
477 98 484 4 4 108 23 232 44 124 21 257 43 295 51 39 7 73 10 77 6 4 -4 -3
-47 -16 -97 -19 -76 -26 -90 -44 -93 -11 -2 -35 -19 -52 -38 -23 -26 -30 -44
-30 -75 0 -47 14 -79 35 -79 10 0 15 -10 16 -27 0 -28 0 -28 10 -5 5 13 22 37
38 53 37 37 46 77 31 137 -11 41 -10 58 9 132 11 46 21 87 21 91 0 14 -31 39
-48 38 -14 0 -13 -2 3 -8 25 -10 39 -7 -300 -66 -143 -25 -268 -48 -277 -51
-19 -6 -20 -11 -77 -301 -20 -106 -41 -196 -45 -200 -10 -10 -5 19 47 281 22
114 46 214 53 221 13 12 45 19 383 76 107 18 189 35 184 36 -6 2 -65 -5 -131
-17 -152 -26 -212 -31 -212 -19 0 5 15 26 34 46 42 47 62 88 76 148 14 62 1
107 -51 175 -43 58 -79 125 -79 147 0 8 7 25 16 39 25 37 14 108 -22 145 -57
60 -167 60 -201 0 l-16 -27 -58 15 c-41 11 -59 21 -63 34 -4 16 -11 18 -40 13
-20 -4 -37 -2 -41 4 -11 18 -32 11 -62 -20z m47 -15 c0 -8 4 -15 9 -15 5 0 14
7 21 15 17 20 41 19 47 -3 3 -13 21 -22 63 -30 131 -27 249 -112 302 -217 12
-22 41 -69 66 -105 43 -63 44 -67 39 -125 -5 -75 -40 -145 -99 -202 -39 -38
-53 -45 -127 -60 -45 -9 -89 -22 -96 -29 -14 -15 -33 -91 -60 -246 -10 -54
-21 -98 -26 -98 -5 0 -6 13 -3 29 8 39 -9 67 -56 91 -36 18 -40 24 -34 48 4
15 14 43 24 63 l17 36 -126 6 c-141 7 -215 26 -296 80 -60 39 -119 113 -109
136 4 9 11 59 15 111 19 222 105 357 284 441 44 21 91 49 104 63 28 29 41 33
41 11z m-497 -1019 c60 -49 135 -86 173 -86 23 0 48 -11 80 -35 25 -19 49 -35
53 -35 4 0 8 -13 9 -30 1 -26 -3 -30 -26 -30 -40 0 -142 -53 -180 -92 -18 -19
-44 -61 -57 -93 l-23 -58 -20 33 c-29 46 -60 169 -68 267 -6 77 1 193 13 193
2 0 23 -15 46 -34z m607 -49 c0 -5 -4 -5 -10 -2 -5 3 -10 14 -10 23 0 15 2 15
10 2 5 -8 10 -19 10 -23z m30 -81 c0 -30 -15 -42 -65 -51 -66 -12 -68 -20 -10
-40 30 -10 55 -24 55 -32 0 -7 -4 -13 -8 -13 -9 0 -243 78 -248 83 -2 1 26 1
62 -1 75 -5 138 14 174 53 29 31 40 32 40 1z m599 -41 c-3 -2 -95 -25 -204
-50 -110 -25 -237 -54 -282 -65 -45 -11 -90 -20 -100 -20 -29 0 -296 91 -313
106 -8 8 59 -10 148 -40 l162 -55 172 40 c95 22 227 52 293 68 110 26 137 29
124 16z m-9 -46 c-13 -23 -33 -21 -38 4 -3 12 4 17 23 17 23 0 25 -2 15 -21z
m-65 1 c-3 -5 -11 -10 -16 -10 -6 0 -7 5 -4 10 3 6 11 10 16 10 6 0 7 -4 4
-10z m103 -27 c-4 -37 -38 -45 -38 -10 0 23 10 34 33 36 5 1 7 -11 5 -26z
m-258 -10 c0 -11 -29 -52 -75 -107 -33 -38 -189 -156 -207 -156 -3 0 -8 23
-11 51 -4 28 -16 71 -28 96 -12 24 -20 45 -18 47 6 5 302 74 322 75 9 1 17 -2
17 -6z m200 -8 c31 -19 -11 -148 -51 -160 -45 -14 -83 37 -68 90 17 59 78 95
119 70z m-687 -25 c20 -18 -13 -18 -34 1 l-24 20 25 -7 c14 -3 29 -10 33 -14z
m45 -62 c17 -17 15 -58 -3 -58 -17 0 -35 38 -28 58 6 15 16 15 31 0z m70 -21
c3 -22 -1 -27 -17 -27 -17 0 -21 6 -21 31 0 24 4 30 18 27 10 -2 18 -14 20
-31z m-102 -42 c9 -23 -3 -45 -21 -39 -20 8 -20 54 0 54 9 0 18 -7 21 -15z
m119 -39 c43 -65 23 -146 -35 -146 -53 0 -89 94 -56 145 22 34 69 34 91 1z"/>
<path d="M2040 2305 c-34 -40 9 -150 78 -203 46 -35 106 -37 133 -3 40 49 15
112 -71 180 -57 45 -116 55 -140 26z m80 -119 c0 -8 -4 -17 -9 -21 -12 -7 -24
12 -16 25 9 15 25 12 25 -4z"/>
<path d="M1720 2255 c-30 -16 -115 -121 -130 -160 -13 -33 2 -95 27 -118 33
-29 73 -39 110 -26 39 13 105 90 123 145 16 47 8 129 -15 154 -21 24 -77 26
-115 5z m110 -140 c0 -8 -7 -15 -15 -15 -8 0 -15 7 -15 15 0 8 7 15 15 15 8 0
15 -7 15 -15z"/>
<path d="M1990 2081 c-36 -10 -40 -48 -6 -57 33 -8 33 -29 0 -50 -24 -16 -26
-16 -55 5 -31 23 -40 13 -12 -14 12 -13 26 -15 52 -10 20 3 52 8 71 9 19 2 40
4 47 5 15 1 37 40 29 49 -4 3 -14 -4 -22 -17 -18 -25 -51 -25 -67 0 -8 12 -5
21 12 38 37 37 12 59 -49 42z m50 -11 c0 -5 -4 -10 -10 -10 -5 0 -10 5 -10 10
0 6 5 10 10 10 6 0 10 -4 10 -10z"/>
</g>
</svg>
